HIERARCHY
ROOT root
{
	OFFSET 0.000000 0.000000 0.000000
	CHANNELS 6 Xposition Yposition Zposition Zrotation Yrotation Xrotation
	JOINT lhip
	{
		OFFSET 0.058581 -0.082280 -0.017664
		CHANNELS 3 Zrotation Yrotation Xrotation
		JOINT lknee
		{
			OFFSET 0.043451 -0.386469 0.008037
			CHANNELS 3 Zrotation Yrotation Xrotation
			JOINT lankle
			{
				OFFSET -0.014790 -0.426874 -0.037428
				CHANNELS 3 Zrotation Yrotation Xrotation
				JOINT ltoe
				{
					OFFSET 0.041054 -0.060286 0.122042
					CHANNELS 3 Zrotation Yrotation Xrotation
					End Site
					{
						OFFSET 0.000000 0.000000 0.000000
					}
				}
			}
		}
	}
	JOINT rhip
	{
		OFFSET -0.060310 -0.090513 -0.013543
		CHANNELS 3 Zrotation Yrotation Xrotation
		JOINT rknee
		{
			OFFSET -0.043257 -0.383688 -0.004843
			CHANNELS 3 Zrotation Yrotation Xrotation
			JOINT rankle
			{
				OFFSET 0.019056 -0.420046 -0.034562
				CHANNELS 3 Zrotation Yrotation Xrotation
				JOINT rtoe
				{
					OFFSET -0.034840 -0.062106 0.130323
					CHANNELS 3 Zrotation Yrotation Xrotation
					End Site
					{
						OFFSET 0.000000 0.000000 0.000000
					}
				}
			}
		}
	}
	JOINT lowerback
	{
		OFFSET 0.004439 0.124404 -0.038385
		CHANNELS 3 Zrotation Yrotation Xrotation
		JOINT upperback
		{
			OFFSET 0.004488 0.137956 0.026820
			CHANNELS 3 Zrotation Yrotation Xrotation
			JOINT chest
			{
				OFFSET -0.002265 0.056032 0.002855
				CHANNELS 3 Zrotation Yrotation Xrotation
				JOINT lowerneck
				{
					OFFSET -0.013390 0.211636 -0.033468
					CHANNELS 3 Zrotation Yrotation Xrotation
					JOINT upperneck
					{
						OFFSET 0.010113 0.088937 0.050410
						CHANNELS 3 Zrotation Yrotation Xrotation
						End Site
						{
							OFFSET 0.000000 0.000000 0.000000
						}
					}
				}
				JOINT lclavicle
				{
					OFFSET 0.071702 0.114000 -0.018898
					CHANNELS 3 Zrotation Yrotation Xrotation
					JOINT lshoulder
					{
						OFFSET 0.122921 0.045205 -0.019046
						CHANNELS 3 Zrotation Yrotation Xrotation
						JOINT lelbow
						{
							OFFSET 0.255332 -0.015649 -0.022946
							CHANNELS 3 Zrotation Yrotation Xrotation
							JOINT lwrist
							{
								OFFSET 0.265709 0.012698 -0.007375
								CHANNELS 3 Zrotation Yrotation Xrotation
								End Site
								{
									OFFSET 0.000000 0.000000 0.000000
								}
							}
						}
					}
				}
				JOINT rclavicle
				{
					OFFSET -0.082954 0.112472 -0.023707
					CHANNELS 3 Zrotation Yrotation Xrotation
					JOINT rshoulder
					{
						OFFSET -0.113228 0.046853 -0.008472
						CHANNELS 3 Zrotation Yrotation Xrotation
						JOINT relbow
						{
							OFFSET -0.260127 -0.014369 -0.031269
							CHANNELS 3 Zrotation Yrotation Xrotation
							JOINT rwrist
							{
								OFFSET -0.269108 0.006794 -0.006027
								CHANNELS 3 Zrotation Yrotation Xrotation
								End Site
								{
									OFFSET 0.000000 0.000000 0.000000
								}
							}
						}
					}
				}
			}
		}
	}
}
MOTION
Frames: 10
Frame Time: 0.033333
1.260451 0.193368 1.045467 68.531207 4.536882 77.764402 2.527505 8.784281 24.651830 -5.287736 -8.522323 5.382225 -5.579886 14.792869 -2.743797 0.000000 -0.000000 0.000000 1.972486 12.484012 -36.435842 1.422361 -2.817529 12.505408 3.088387 -15.093973 -21.845015 0.000000 -0.000000 0.000000 2.494891 -19.174659 11.558378 2.505450 -9.623105 4.570393 1.650154 -12.167986 -0.379732 -4.306083 7.901328 1.371660 7.202878 21.500482 7.288147 -23.703708 -25.018389 8.428218 -20.741725 -34.427245 9.513474 146.420600 -70.536121 -130.300686 2.144438 -32.248980 -5.810469 16.643810 4.654637 10.991617 28.257393 -30.145049 21.048500 11.155555 29.898029 29.789492 29.719308 8.166565 9.922026 
1.285767 0.183840 1.029976 68.787254 3.932050 78.517539 2.390158 9.579807 26.185226 -5.614758 -8.562320 5.244511 -5.016967 14.554216 -5.868708 0.000000 -0.000000 0.000000 2.556682 12.023157 -34.254789 1.538604 -1.868126 12.104742 3.226634 -14.701903 -21.963269 0.000000 -0.000000 0.000000 2.704465 -19.254588 10.064471 2.232020 -9.882088 4.604174 1.558576 -12.418848 -0.265871 -4.650729 7.440441 1.914816 7.294690 22.536695 6.585554 -23.580655 -24.977790 8.388584 -20.906679 -35.357285 8.999052 149.111246 -68.765661 -132.266150 2.068896 -32.137228 -6.629407 15.774781 3.706974 11.094892 28.351896 -31.581173 20.789536 11.157660 29.152871 30.738572 30.625426 7.724980 10.178216 
1.311237 0.173735 1.010646 69.553660 3.522657 79.205445 2.585443 10.106137 27.667433 -6.008251 -9.178587 5.641389 -4.286359 14.274999 -9.905176 0.000000 -0.000000 0.000000 2.589424 11.457311 -31.978995 1.525245 -0.928009 12.109024 3.654310 -14.288716 -22.019954 0.000000 -0.000000 0.000000 2.792173 -19.325423 8.706121 2.127610 -10.339428 4.972666 1.472156 -12.652864 -0.394413 -4.663330 7.004589 2.206409 7.166261 23.168744 6.244686 -23.991395 -24.808575 8.871290 -21.466075 -35.700783 8.755521 151.610390 -67.901046 -133.944220 2.524128 -32.084049 -7.727286 15.650713 3.279383 11.027534 29.108343 -32.067359 20.321963 10.296814 27.849022 30.661221 30.995474 7.232425 10.550161 
1.337878 0.162924 0.990050 70.263888 3.093730 79.763092 2.783043 10.372904 29.421976 -6.317852 -10.078674 5.940106 -3.717409 14.059616 -13.693486 0.000000 -0.000000 0.000000 2.324471 10.766074 -29.575458 1.407418 0.108821 12.628917 4.070219 -13.779843 -21.993412 0.000000 -0.000000 0.000000 2.818827 -19.112528 7.419184 2.034728 -10.717000 5.685299 1.399342 -12.779012 -0.719218 -4.491962 6.628115 2.281601 6.897077 23.448418 6.000472 -24.741741 -24.665358 9.628292 -22.202707 -35.360897 8.858206 154.084879 -67.856054 -135.813444 2.805955 -32.201152 -8.550005 16.017587 3.408838 10.845277 30.407399 -31.900340 19.819049 9.493279 26.778825 30.210524 31.143798 6.754683 10.989341 
1.366786 0.151072 0.970661 70.484506 2.591226 80.577759 2.838174 10.509499 31.094929 -6.587913 -10.827604 6.016765 -3.397165 13.712706 -16.493891 0.000000 -0.000000 0.000000 1.946661 10.093564 -27.459208 1.188675 0.806515 13.807531 4.001430 -13.592715 -21.682758 0.000000 -0.000000 0.000000 3.137395 -18.710542 5.693568 1.873355 -10.703600 6.276052 1.171105 -12.639186 -0.996865 -4.225223 6.240343 2.241605 6.631414 23.375495 6.023653 -25.469687 -24.376153 10.209375 -23.279542 -34.835397 9.357144 156.075607 -68.622801 -137.347206 2.802548 -32.395492 -8.754633 16.525303 3.730282 10.666416 31.912601 -31.117115 19.444046 9.078449 26.186117 29.808444 31.009351 6.664360 10.821729 
1.397981 0.137905 0.955253 70.199132 2.335924 81.775032 2.996784 10.521687 32.354162 -6.768938 -11.268223 6.127596 -3.432483 13.179787 -17.831242 0.000000 -0.000000 0.000000 1.831486 9.076812 -26.009023 1.200823 0.238257 14.585800 3.582570 -13.435359 -19.762678 0.000000 -0.000000 0.000000 3.969499 -18.105604 3.744827 1.870771 -10.405329 6.274847 0.976091 -12.349030 -1.257752 -4.062718 5.856960 2.074909 6.411843 23.197755 6.585331 -25.964113 -24.141348 10.541486 -24.456469 -34.442735 10.041319 157.473694 -69.639847 -138.738737 2.984828 -32.550777 -9.305222 17.079974 4.207525 10.676577 33.041041 -29.914078 19.198886 8.743854 25.565451 29.387674 30.505397 6.791064 10.476031 
1.428456 0.124351 0.949014 68.852926 3.048610 83.018477 3.074775 9.978936 32.915723 -6.403805 -10.827411 6.466979 -3.912883 13.288102 -16.922000 0.000000 -0.000000 0.000000 2.311449 8.762909 -26.561391 2.282086 -1.510412 15.842308 3.207552 -12.939289 -14.770994 0.000000 -0.000000 0.000000 5.440125 -17.661597 2.713669 2.520967 -9.668060 5.878026 1.151190 -11.849120 -1.623227 -4.022221 5.778814 1.398880 5.929751 23.305035 7.060503 -26.268238 -24.140123 10.372150 -25.368221 -34.144613 10.881087 157.721627 -69.893020 -138.815450 2.588805 -32.731441 -9.197975 17.815135 5.082207 10.684341 33.138693 -27.869761 19.194261 8.156823 24.585442 28.720263 29.908192 6.778915 10.328090 
1.458290 0.110469 0.953424 67.732242 4.043467 84.090748 2.596768 8.683455 32.582320 -5.832203 -9.309256 7.546024 -4.781857 14.399177 -13.541287 0.000000 -0.000000 0.000000 2.838237 9.946853 -27.295126 2.720343 -3.450631 17.975836 3.071090 -14.022937 -10.669167 0.000000 -0.000000 0.000000 6.134370 -17.753269 2.058915 3.748423 -9.021850 5.904959 1.873555 -11.478243 -2.049608 -3.669699 5.644796 1.188864 5.211046 23.645332 6.965658 -26.362967 -24.161095 10.485562 -26.038346 -34.172736 11.778305 156.172272 -69.413929 -137.190052 2.189207 -32.829512 -8.846023 18.489180 6.051290 10.697051 32.444442 -25.207516 19.673124 7.492677 24.316429 26.926172 29.017215 7.198392 9.615012 
1.490097 0.096669 0.963442 69.045144 4.254316 85.231587 3.416199 8.549335 31.484962 -5.472678 -7.937948 9.660373 -5.500318 14.052274 -7.656739 0.000000 -0.000000 0.000000 3.155592 8.467667 -25.745166 2.427762 -4.899864 17.684007 2.201988 -14.125379 -8.377031 0.000000 -0.000000 0.000000 6.098080 -17.577222 1.092269 4.650594 -9.631018 5.013867 2.597707 -11.810817 -2.368886 -3.400688 5.033135 1.655033 5.327943 23.590276 7.850886 -26.273616 -24.485034 10.818082 -26.695973 -34.454093 12.063843 156.650598 -69.307411 -137.173346 2.299378 -32.675731 -8.851724 18.679968 6.268609 10.725981 31.800720 -23.693756 19.177779 7.826429 25.289453 26.010752 28.003001 8.260750 7.997984 
1.522328 0.083992 0.974328 71.233804 4.021286 86.195294 4.805904 8.957902 30.261987 -5.113192 -6.357468 11.828572 -5.940431 13.097747 -0.248327 0.000000 -0.000000 0.000000 3.207092 5.649784 -23.223146 1.926262 -6.541429 16.543011 1.327507 -13.825332 -6.753736 0.000000 -0.000000 0.000000 6.150587 -16.978826 0.116552 5.203989 -10.460501 3.969695 2.964741 -11.981306 -2.801293 -3.602627 4.370513 1.447155 5.710482 23.066379 9.272853 -25.709008 -24.910735 10.759327 -27.913125 -35.273760 12.251444 158.228212 -69.642548 -137.885727 2.985676 -32.236527 -9.215604 18.423612 6.181022 10.589394 32.096934 -23.483688 18.294177 8.126456 26.487639 26.355960 27.470156 9.025675 6.818157 
